Coordinates
nRows=4
nColumns=38

# SIMM Motion File Header:
name Coordinates
datacolumns 38
datarows 4
otherdata 1
range 0.60799999999999998000 0.61099999999999999000

Units are S.I. units (second, meters, Newtons, ...)
Angles are in degrees.

endheader
time	pelvis_tilt	pelvis_list	pelvis_rotation	pelvis_tx	pelvis_ty	pelvis_tz	hip_flexion_r	hip_adduction_r	hip_rotation_r	knee_angle_r	ankle_angle_r	subtalar_angle_r	mtp_angle_r	hip_flexion_l	hip_adduction_l	hip_rotation_l	knee_angle_l	ankle_angle_l	subtalar_angle_l	mtp_angle_l	lumbar_extension	lumbar_bending	lumbar_rotation	arm_flex_r	arm_add_r	arm_rot_r	elbow_flex_r	pro_sup_r	wrist_flex_r	wrist_dev_r	arm_flex_l	arm_add_l	arm_rot_l	elbow_flex_l	pro_sup_l	wrist_flex_l	wrist_dev_l
      0.60799999999999998000	     -5.10393270300261200000	     -3.91786462444853840000	     -0.64757446444336808000	      0.91298493304791106000	      0.93192694032139012000	     -0.29483816669088375000	      9.97326438912949160000	      7.39852023978570110000	     -6.70825766191394020000	    -40.06774674169301400000	     29.17228488869562900000	      0.00000000000001874375	     -0.00000000000006238751	     37.37106217128319200000	      0.45530277317649598000	      2.80480554882713220000	    -96.69430532585181500000	     -3.91812652619144370000	      0.00000000000000219175	      0.00000000000000975659	     -8.31412112863564980000	      4.72866012689780300000	      9.86022518090954850000	    -15.13446740200114200000	    -26.79213671292185900000	     -1.66249875331897320000	    103.40230705316729000000	     90.86438660587354800000	      0.00000000000000313724	     -0.00000000000000130249	    -24.26758484941512300000	    -22.88651688040086900000	     -2.04098713312287840000	    106.66281289156963000000	    123.30713809594381000000	      0.00000000000000290422	     -0.00000000000000299629
      0.60899999999999999000	     -5.14359494268117330000	     -3.82514660732992430000	     -0.68248147100445111000	      0.91299447815237733000	      0.93239457304218210000	     -0.29481105170460503000	      9.67690437710859720000	      7.30115757915837000000	     -6.67729063488109810000	    -39.79665018371292700000	     29.01214262369195400000	      0.00000000000001906800	     -0.00000000000006327694	     37.61984124241352100000	      0.53526217150761246000	      2.72886147315491060000	    -96.44646803060057000000	     -3.84853012321456940000	      0.00000000000000221242	      0.00000000000000977523	     -8.26209063287447340000	      4.61214397332194980000	      9.99253863455090400000	    -15.02306160871966300000	    -26.84128373475268200000	     -1.67325976241286180000	    103.57689022596637000000	     90.75375058171415800000	      0.00000000000000317519	     -0.00000000000000132979	    -24.42749614326218200000	    -22.90305403529215400000	     -2.05984306664743770000	    106.69018450350231000000	    123.36374558845995000000	      0.00000000000000292037	     -0.00000000000000307725
      0.60999999999999999000	     -5.18338494225686030000	     -3.73113781182991570000	     -0.71800882942969835000	      0.91300830037116065000	      0.93286859376141196000	     -0.29478247454916573000	      9.38101674576942200000	      7.20192871483662780000	     -6.64649793159544180000	    -39.52498820451987900000	     28.84424709412390100000	      0.00000000000001942841	     -0.00000000000006422345	     37.86532919778871100000	      0.61469965610077226000	      2.65105480909107480000	    -96.19192787228423900000	     -3.77857712044933700000	      0.00000000000000223388	      0.00000000000000978651	     -8.20940074263201500000	      4.49375388030082860000	     10.12500151313024200000	    -14.91342541511999000000	    -26.88929225479292400000	     -1.68599243503667530000	    103.75102677118815000000	     90.64500932011814900000	      0.00000000000000321183	     -0.00000000000000135650	    -24.58798108829568100000	    -22.92050860304516400000	     -2.07911722048600420000	    106.71962342744713000000	    123.41290904914915000000	      0.00000000000000293591	     -0.00000000000000316326
      0.61099999999999999000	     -5.22328994710622310000	     -3.63587814012782220000	     -0.75411006999016150000	      0.91302623858562748000	      0.93334894232394028000	     -0.29475252998269386000	      9.08570005200423660000	      7.10086338636235140000	     -6.61590557311244520000	    -39.25288973758623700000	     28.66852469339913500000	      0.00000000000001980740	     -0.00000000000006518374	     38.10751441148730800000	      0.69362844915472788000	      2.57148426526163430000	    -95.93071034709210200000	     -3.70829371144206240000	      0.00000000000000225656	      0.00000000000000979620	     -8.15609636842005340000	      4.37355212258308960000	     10.25756316176423700000	    -14.80552685233834300000	    -26.93614889301767000000	     -1.70070287737896590000	    103.92468567828129000000	     90.53820634872680300000	      0.00000000000000324845	     -0.00000000000000138377	    -24.74895626973234300000	    -22.93882840566042700000	     -2.09889235334831610000	    106.75103487664408000000	    123.45428398057966000000	      0.00000000000000295145	     -0.00000000000000325646
